# xmcd
#
# Track frame offsets:
#        150
#        19225
#        37180
#        55035
#        73462
#        91597
#        109765
#        128667
#        147452
#        164232
#        183262
#        201070
#        219467
#        237347
#        256580
#        274855
#        292247
#        309690
#        339735
#
# Disc length: 4795 seconds
#
# Revision: 0
# Processed by: cddbd v1.5.1PL2 Copyright (c) Steve Scherf et al.
# Submitted via: ExactAudioCopy v0.95b1
#
DISCID=2d12b913
DTITLE=Various Artist - SUPER EUROBEAT Vol.162
DYEAR=2005
DGENRE=Eurodance
TTITLE0=VIRGINELLE - LIKE A VIRGIN 2005
TTITLE1=MADISON - WITHOUT YOU
TTITLE2=DEGAZ feat. VANESSA - STAND UP
TTITLE3=EUROFUNK - STOP TO GIVE UP
TTITLE4=MISTER MAX - LINE ON FIRE
TTITLE5=GROOVE TWINS - OH BABY CALL ME NOW
TTITLE6=SARAH - STAY WITH ME TONIGHT
TTITLE7=MANUEL - PLEASE DON'T GO
TTITLE8=SUZY LAZY - CARRY ON BABY
TTITLE9=PAMSY - SO FRAGILE
TTITLE10=NAYR - ALL ALONE
TTITLE11=MARK FOSTER - LIKE A FIRE
TTITLE12=NANDO feat. THE PROPHET - ROCK 'N' ROLL EMULATION
TTITLE13=LUCYA and ACE - MEMORIES and FEELINGS
TTITLE14=DAVE - MOONLIGHT SENSATION
TTITLE15=JEFF DRILLER - LUCKY DOOM
TTITLE16=ACE - RIDER OF THE SKY
TTITLE17=DAVE RODGERS - ELDORADO
TTITLE18=CCCD
EXTD=
EXTT0=
EXTT1=
EXTT2=
EXTT3=
EXTT4=
EXTT5=
EXTT6=
EXTT7=
EXTT8=
EXTT9=
EXTT10=
EXTT11=
EXTT12=
EXTT13=
EXTT14=
EXTT15=
EXTT16=
EXTT17=
EXTT18=
PLAYORDER=
